<svg width="800" height="600" viewBox="0 0 800 600" fill="none" xmlns="http://www.w3.org/2000/svg">
  <defs>
    <linearGradient id="skyGradient" x1="0%" y1="0%" x2="0%" y2="100%">
      <stop offset="0%" style="stop-color:#87CEEB;stop-opacity:1" />
      <stop offset="100%" style="stop-color:#E0F6FF;stop-opacity:1" />
    </linearGradient>
    <linearGradient id="mountainGradient" x1="0%" y1="0%" x2="0%" y2="100%">
      <stop offset="0%" style="stop-color:#2F4F2F;stop-opacity:1" />
      <stop offset="100%" style="stop-color:#556B2F;stop-opacity:1" />
    </linearGradient>
  </defs>
  
  <!-- Sky Background -->
  <rect width="800" height="600" fill="url(#skyGradient)"/>
  
  <!-- Mountains -->
  <polygon points="0,300 150,150 300,200 450,100 600,180 750,120 800,140 800,600 0,600" fill="url(#mountainGradient)"/>
  
  <!-- Clock Tower (Jam Gadang) -->
  <g transform="translate(350,250)">
    <!-- Tower Base -->
    <rect x="0" y="100" width="100" height="200" fill="#8B4513"/>
    <!-- Tower Middle -->
    <rect x="10" y="50" width="80" height="50" fill="#A0522D"/>
    <!-- Tower Top -->
    <rect x="20" y="20" width="60" height="30" fill="#CD853F"/>
    <!-- Roof -->
    <polygon points="15,20 50,0 85,20" fill="#B22222"/>
    <!-- Clock Face -->
    <circle cx="50" cy="75" r="20" fill="white" stroke="#333" stroke-width="2"/>
    <!-- Clock Hands -->
    <line x1="50" y1="75" x2="50" y2="60" stroke="#333" stroke-width="2"/>
    <line x1="50" y1="75" x2="65" y2="75" stroke="#333" stroke-width="1"/>
    <!-- Windows -->
    <rect x="25" y="120" width="15" height="20" fill="#4169E1"/>
    <rect x="60" y="120" width="15" height="20" fill="#4169E1"/>
    <rect x="25" y="160" width="15" height="20" fill="#4169E1"/>
    <rect x="60" y="160" width="15" height="20" fill="#4169E1"/>
  </g>
  
  <!-- Traditional Houses -->
  <g transform="translate(150,350)">
    <rect x="0" y="50" width="80" height="50" fill="#8B4513"/>
    <polygon points="0,50 40,20 80,50" fill="#B22222"/>
    <rect x="30" y="70" width="15" height="30" fill="#654321"/>
  </g>
  
  <g transform="translate(500,370)">
    <rect x="0" y="50" width="70" height="45" fill="#8B4513"/>
    <polygon points="0,50 35,25 70,50" fill="#B22222"/>
    <rect x="25" y="70" width="12" height="25" fill="#654321"/>
  </g>
  
  <!-- Trees -->
  <g transform="translate(100,400)">
    <rect x="18" y="50" width="4" height="50" fill="#8B4513"/>
    <circle cx="20" cy="40" r="20" fill="#228B22"/>
  </g>
  
  <g transform="translate(600,380)">
    <rect x="18" y="50" width="4" height="60" fill="#8B4513"/>
    <circle cx="20" cy="35" r="25" fill="#228B22"/>
  </g>
  
  <!-- Rice Fields -->
  <rect x="50" y="480" width="200" height="30" fill="#9ACD32" opacity="0.7"/>
  <rect x="300" y="490" width="150" height="25" fill="#9ACD32" opacity="0.7"/>
  <rect x="500" y="485" width="180" height="28" fill="#9ACD32" opacity="0.7"/>
  
  <!-- Clouds -->
  <g opacity="0.8">
    <ellipse cx="200" cy="80" rx="35" ry="18" fill="white"/>
    <ellipse cx="220" cy="70" rx="45" ry="22" fill="white"/>
    <ellipse cx="240" cy="80" rx="30" ry="15" fill="white"/>
  </g>
  
  <g opacity="0.7">
    <ellipse cx="600" cy="60" rx="40" ry="20" fill="white"/>
    <ellipse cx="625" cy="50" rx="50" ry="25" fill="white"/>
  </g>
  
  <!-- Sun -->
  <circle cx="700" cy="100" r="35" fill="#FFD700" opacity="0.9"/>
</svg>