<svg width="800" height="600" viewBox="0 0 800 600" fill="none" xmlns="http://www.w3.org/2000/svg">
  <defs>
    <linearGradient id="padangSky" x1="0%" y1="0%" x2="0%" y2="100%">
      <stop offset="0%" style="stop-color:#C084FC;stop-opacity:1" />
      <stop offset="100%" style="stop-color:#A855F7;stop-opacity:1" />
    </linearGradient>
    <linearGradient id="padangRoof" x1="0%" y1="0%" x2="0%" y2="100%">
      <stop offset="0%" style="stop-color:#DC2626;stop-opacity:1" />
      <stop offset="100%" style="stop-color:#991B1B;stop-opacity:1" />
    </linearGradient>
  </defs>
  
  <!-- Sky -->
  <rect width="800" height="450" fill="url(#padangSky)"/>
  
  <!-- Mountains in background -->
  <path d="M0,350 L150,250 L250,300 L350,200 L450,280 L550,220 L650,290 L750,240 L800,280 L800,450 L0,450 Z" 
        fill="#7C3AED" opacity="0.3"/>
  
  <!-- Traditional Minangkabau house (Rumah Gadang) -->
  <g>
    <!-- House body -->
    <rect x="250" y="350" width="300" height="150" fill="#92400E"/>
    <rect x="260" y="360" width="280" height="130" fill="#B45309"/>
    
    <!-- Characteristic curved roof -->
    <path d="M200,350 Q250,280 400,320 Q550,280 600,350 L550,350 Q400,310 250,350 Z" 
          fill="url(#padangRoof)"/>
    <path d="M210,350 Q250,290 400,328 Q550,290 590,350" 
          stroke="#7F1D1D" stroke-width="3" fill="none"/>
    
    <!-- Roof decorations -->
    <circle cx="400" cy="300" r="8" fill="#FBBF24"/>
    <rect x="395" y="290" width="10" height="20" fill="#F59E0B"/>
    
    <!-- Windows -->
    <rect x="290" y="380" width="40" height="50" fill="#451A03" rx="3"/>
    <rect x="370" y="380" width="60" height="50" fill="#451A03" rx="3"/>
    <rect x="470" y="380" width="40" height="50" fill="#451A03" rx="3"/>
    
    <!-- Window details -->
    <line x1="310" y1="380" x2="310" y2="430" stroke="#92400E" stroke-width="2"/>
    <line x1="290" y1="405" x2="330" y2="405" stroke="#92400E" stroke-width="2"/>
    
    <line x1="400" y1="380" x2="400" y2="430" stroke="#92400E" stroke-width="2"/>
    <line x1="370" y1="405" x2="430" y2="405" stroke="#92400E" stroke-width="2"/>
    
    <!-- Door -->
    <rect x="340" y="420" width="50" height="80" fill="#451A03" rx="3"/>
    <circle cx="380" cy="460" r="3" fill="#FBBF24"/>
    
    <!-- Pillars -->
    <rect x="230" y="400" width="15" height="100" fill="#78350F" rx="2"/>
    <rect x="555" y="400" width="15" height="100" fill="#78350F" rx="2"/>
  </g>
  
  <!-- Ground -->
  <rect y="500" width="800" height="100" fill="#16A34A"/>
  <ellipse cx="400" cy="500" rx="350" ry="20" fill="#15803D"/>
  
  <!-- Traditional patterns decoration -->
  <circle cx="150" cy="120" r="30" fill="#F472B6" opacity="0.6"/>
  <circle cx="150" cy="120" r="20" fill="#EC4899" opacity="0.6"/>
  <circle cx="650" cy="150" r="35" fill="#F472B6" opacity="0.6"/>
  <circle cx="650" cy="150" r="23" fill="#EC4899" opacity="0.6"/>
  
  <!-- Trees -->
  <ellipse cx="120" cy="480" rx="40" ry="50" fill="#166534"/>
  <rect x="115" y="480" width="10" height="40" fill="#78350F"/>
  
  <ellipse cx="680" cy="470" rx="45" ry="55" fill="#166534"/>
  <rect x="674" y="470" width="12" height="50" fill="#78350F"/>
</svg>

