<svg width="800" height="600" viewBox="0 0 800 600" fill="none" xmlns="http://www.w3.org/2000/svg">
  <defs>
    <linearGradient id="oceanGradient" x1="0%" y1="0%" x2="0%" y2="100%">
      <stop offset="0%" style="stop-color:#4682B4;stop-opacity:1" />
      <stop offset="100%" style="stop-color:#1E90FF;stop-opacity:1" />
    </linearGradient>
    <linearGradient id="waveGradient" x1="0%" y1="0%" x2="0%" y2="100%">
      <stop offset="0%" style="stop-color:#87CEEB;stop-opacity:0.8" />
      <stop offset="100%" style="stop-color:#B0E0E6;stop-opacity:0.6" />
    </linearGradient>
  </defs>
  
  <!-- Ocean Background -->
  <rect width="800" height="600" fill="url(#oceanGradient)"/>
  
  <!-- Large Wave -->
  <path d="M0,300 Q200,200 400,250 Q600,300 800,280 L800,600 L0,600 Z" fill="url(#waveGradient)"/>
  
  <!-- Wave Crest -->
  <path d="M200,220 Q300,180 400,200 Q500,220 600,200 Q650,190 700,200" 
        stroke="white" stroke-width="8" fill="none" opacity="0.9"/>
  
  <!-- Surfer -->
  <g transform="translate(350,240) rotate(-10)">
    <!-- Surfboard -->
    <ellipse cx="0" cy="0" rx="60" ry="8" fill="#FF6347"/>
    <rect x="-50" y="-2" width="100" height="4" fill="#FFD700"/>
    
    <!-- Surfer Body -->
    <g transform="translate(0,-20)">
      <!-- Head -->
      <circle cx="0" cy="-15" r="8" fill="#FDBCB4"/>
      <!-- Body -->
      <rect x="-6" y="-10" width="12" height="20" fill="#4169E1"/>
      <!-- Arms -->
      <rect x="-15" y="-8" width="8" height="3" fill="#FDBCB4" transform="rotate(-20)"/>
      <rect x="7" y="-8" width="8" height="3" fill="#FDBCB4" transform="rotate(20)"/>
      <!-- Legs -->
      <rect x="-8" y="8" width="6" height="12" fill="#000080"/>
      <rect x="2" y="8" width="6" height="12" fill="#000080"/>
    </g>
  </g>
  
  <!-- Water Splash -->
  <g transform="translate(320,260)">
    <circle cx="0" cy="0" r="3" fill="white" opacity="0.8"/>
    <circle cx="10" cy="-5" r="2" fill="white" opacity="0.7"/>
    <circle cx="-8" cy="3" r="2.5" fill="white" opacity="0.6"/>
    <circle cx="15" cy="8" r="1.5" fill="white" opacity="0.5"/>
  </g>
  
  <!-- Additional Waves -->
  <path d="M0,400 Q150,350 300,380 Q450,410 600,390 Q700,380 800,390 L800,600 L0,600 Z" 
        fill="#87CEEB" opacity="0.6"/>
  
  <!-- Smaller Waves -->
  <path d="M0,480 Q100,460 200,470 Q300,480 400,475 Q500,470 600,475 Q700,480 800,475 L800,600 L0,600 Z" 
        fill="#B0E0E6" opacity="0.4"/>
  
  <!-- Beach in Distance -->
  <polygon points="0,350 200,330 400,340 600,335 800,340 800,380 0,380" fill="#F4E4BC" opacity="0.3"/>
  
  <!-- Palm Trees on Beach -->
  <g transform="translate(100,320)" opacity="0.4">
    <rect x="18" y="20" width="4" height="40" fill="#8B4513"/>
    <ellipse cx="20" cy="15" rx="15" ry="10" fill="#228B22"/>
  </g>
  
  <g transform="translate(700,315)" opacity="0.4">
    <rect x="18" y="20" width="4" height="45" fill="#8B4513"/>
    <ellipse cx="20" cy="15" rx="18" ry="12" fill="#228B22"/>
  </g>
  
  <!-- Sun -->
  <circle cx="650" cy="100" r="50" fill="#FFD700" opacity="0.9"/>
  
  <!-- Sun Rays -->
  <g stroke="#FFD700" stroke-width="3" opacity="0.7">
    <line x1="650" y1="30" x2="650" y2="50"/>
    <line x1="650" y1="150" x2="650" y2="170"/>
    <line x1="580" y1="100" x2="600" y2="100"/>
    <line x1="700" y1="100" x2="720" y2="100"/>
    <line x1="595" y1="55" x2="610" y2="70"/>
    <line x1="690" y1="130" x2="705" y2="145"/>
    <line x1="705" y1="55" x2="690" y2="70"/>
    <line x1="610" y1="130" x2="595" y2="145"/>
  </g>
  
  <!-- Seabirds -->
  <g transform="translate(200,150)" opacity="0.6">
    <path d="M0,0 Q5,-5 10,0 Q5,5 0,0" fill="#333"/>
  </g>
  <g transform="translate(500,120)" opacity="0.6">
    <path d="M0,0 Q5,-5 10,0 Q5,5 0,0" fill="#333"/>
  </g>
  <g transform="translate(750,180)" opacity="0.6">
    <path d="M0,0 Q5,-5 10,0 Q5,5 0,0" fill="#333"/>
  </g>
</svg>